<?xml version="1.0" standalone="no"?>
<!DOCTYPE svg PUBLIC "-//W3C//DTD SVG 20010904//EN"
 "http://www.w3.org/TR/2001/REC-SVG-20010904/DTD/svg10.dtd">
<svg version="1.0" xmlns="http://www.w3.org/2000/svg"
 width="200.000000pt" height="200.000000pt" viewBox="0 0 200.000000 200.000000"
 preserveAspectRatio="xMidYMid meet">

<g transform="translate(0.000000,200.000000) scale(0.100000,-0.100000)"
fill="#005F7F" stroke="none">
<path d="M802 1979 c-402 -84 -700 -384 -782 -788 -71 -350 63 -730 337 -956
529 -436 1320 -236 1572 398 180 453 1 977 -419 1226 -209 125 -474 169 -708
120z m84 -784 c60 -201 111 -365 114 -365 3 0 55 164 114 365 l109 365 169 0
168 0 0 -560 0 -560 -110 0 -110 0 -1 98 c-1 53 -4 221 -8 372 l-6 275 -106
-370 -106 -370 -113 0 -113 0 -106 370 -106 370 -6 -200 c-4 -110 -7 -278 -8
-372 l-1 -173 -110 0 -110 0 0 560 0 560 168 0 169 0 109 -365z"/>
</g>
</svg>
